<svg id="flags" xmlns="http://www.w3.org/2000/svg" viewBox="0 0 162 116"><defs><style>.cls-1{fill:#00008b;}.cls-2{fill:#fff;}.cls-3{fill:red;}</style></defs><title>aus</title><g id="AUSTRALIA"><path class="cls-1" d="M0,17.5H162v81H0Z"/><g id="Commonwealth_Star" data-name="Commonwealth Star"><polygon id="Star7" class="cls-2" points="40.5 66.1 42.84 73.39 50 70.67 45.77 77.05 52.34 80.95 44.72 81.62 45.77 89.2 40.5 83.65 35.23 89.2 36.28 81.62 28.66 80.95 35.23 77.05 31 70.67 38.16 73.39 40.5 66.1"/></g><g id="Star_Alpha_Crucis" data-name="Star Alpha Crucis"><polygon id="Star7-2" data-name="Star7" class="cls-2" points="121.5 79.21 122.62 82.68 126.02 81.39 124.01 84.43 127.14 86.29 123.51 86.6 124.01 90.21 121.5 87.57 118.99 90.21 119.49 86.6 115.86 86.29 118.99 84.43 116.98 81.39 120.38 82.68 121.5 79.21"/></g><g id="Star_Beta_Crucis" data-name="Star Beta Crucis"><polygon id="Star7-3" data-name="Star7" class="cls-2" points="101.25 47.15 102.37 50.62 105.77 49.33 103.76 52.37 106.89 54.23 103.26 54.54 103.76 58.15 101.25 55.51 98.74 58.15 99.24 54.54 95.61 54.23 98.74 52.37 96.73 49.33 100.13 50.62 101.25 47.15"/></g><g id="Star_Gamma_Crucis" data-name="Star Gamma Crucis"><polygon id="Star7-4" data-name="Star7" class="cls-2" points="121.5 25.21 122.62 28.68 126.02 27.39 124.01 30.43 127.14 32.29 123.51 32.6 124.01 36.21 121.5 33.57 118.99 36.21 119.49 32.6 115.86 32.29 118.99 30.43 116.98 27.39 120.38 28.68 121.5 25.21"/></g><g id="Star_Delta_Crucis" data-name="Star Delta Crucis"><polygon id="Star7-5" data-name="Star7" class="cls-2" points="139.5 41.75 140.62 45.22 144.02 43.93 142.01 46.97 145.14 48.83 141.51 49.14 142.01 52.75 139.5 50.11 136.99 52.75 137.49 49.14 133.86 48.83 136.99 46.97 134.98 43.93 138.38 45.22 139.5 41.75"/></g><g id="Star_Epsilon_Crucis" data-name="Star Epsilon Crucis"><polygon id="Star5" class="cls-2" points="129.6 58 130.48 60.16 132.81 60.33 131.03 61.84 131.58 64.11 129.6 62.88 127.62 64.11 128.17 61.84 126.39 60.33 128.72 60.16 129.6 58"/></g><path id="White_Cross" data-name="White Cross" class="cls-2" d="M33.75,17.5h13.5V31H81V44.5H47.25V58H33.75V44.5H0V31H33.75Z"/><path id="White_Diagonal" data-name="White Diagonal" class="cls-2" d="M0,17.5H9.06L81,53.47V58H71.94L0,22Z"/><g id="White_Diagonal_Flipped" data-name="White Diagonal Flipped"><path id="White_Diagonal-2" data-name="White Diagonal" class="cls-2" d="M81,17.5H71.94L0,53.47V58H9.06L81,22Z"/></g><path id="Red_Cross" data-name="Red Cross" class="cls-3" d="M36.45,17.5h8.1V33.7H81v8.1H44.55V58h-8.1V41.8H0V33.7H36.45Z"/><path id="Red_Diagonals" data-name="Red Diagonals" class="cls-3" d="M0,17.5,27,31H21L0,20.52Zm81,0H75L48,31h6Z"/><g id="Red_Diagonals_Rotated" data-name="Red Diagonals Rotated"><path id="Red_Diagonals-2" data-name="Red Diagonals" class="cls-3" d="M81,58,54,44.5h6L81,55ZM0,58H6L33,44.5H27Z"/></g></g></svg>