<svg id="flags" xmlns="http://www.w3.org/2000/svg" xmlns:xlink="http://www.w3.org/1999/xlink" viewBox="0 0 162 116"><defs><style>.cls-1{fill:none;}.cls-2{clip-path:url(#clip-path);}.cls-3,.cls-7{fill:red;}.cls-4{fill:#060;}.cls-11,.cls-5{fill:#ff0;}.cls-5,.cls-6,.cls-7,.cls-9{fill-rule:evenodd;}.cls-10,.cls-6{fill:#fff;}.cls-8{fill:#039;}</style><clipPath id="clip-path"><rect class="cls-1" y="4" width="162" height="108"/></clipPath></defs><title>prt</title><g id="PORTUGAL"><g class="cls-2"><rect class="cls-3" x="64.8" y="4" width="97.2" height="108"/></g><rect class="cls-4" y="4" width="64.8" height="108"/><path class="cls-5" d="M85.93,74.75c-8.16-.25-45.56-23.59-45.82-27.31L42.17,44c3.71,5.39,42,28.09,45.71,27.29l-2,3.46"/><path class="cls-5" d="M41.74,43.53C41,45.5,51.5,52,64.12,59.66S87.63,72.08,88.44,71.4a5.87,5.87,0,0,0,.36-.68c-.15.23-.52.3-1.09.14-3.41-1-12.31-5.07-23.32-11.75S43.79,46.27,42.3,43.66a1.59,1.59,0,0,1-.16-.77h0l-.32.55ZM86.12,74.86c-.14.25-.4.26-.89.2-3-.34-12.31-4.84-23.26-11.4C49.22,56,38.69,49.08,39.84,47.26l.31-.55.06,0c-1,3.08,20.77,15.55,22.06,16.34,12.61,7.82,23.25,12.38,24.19,11.2l-.34.59"/><path d="M85.61,75.17l-.39,0c-3.11-.34-12.47-4.93-23.29-11.41C47.47,55.08,40.2,49.87,39.7,47.8a.73.73,0,0,1,.07-.57l.31-.55a.08.08,0,0,1,.09,0l.06,0a.1.1,0,0,1,.05,0,.06.06,0,0,1,0,.06c-.79,2.38,12.93,10.89,21.18,15.75l.85.5C74.76,70.73,85.49,75.37,86.4,74.22a.07.07,0,0,1,.1,0,.06.06,0,0,1,0,.1l-.34.59h0A.59.59,0,0,1,85.61,75.17ZM40.1,47l-.2.35a.58.58,0,0,0,0,.46c.49,2,7.73,7.2,22.16,15.83,10.8,6.47,20.14,11,23.23,11.39.48.05.7,0,.81-.17h0l.18-.32c-2.21.67-14.07-5.18-24-11.35l-.85-.5C47.25,54.32,40.1,49.05,40.1,47ZM88.16,71.54c-2.16,0-13.08-5.12-24.08-11.81C50.5,51.47,40.94,45.47,41.67,43.5h0l0-.08.32-.56a.09.09,0,0,1,.07,0h0a.05.05,0,0,1,0,0s0,0,0,0a1.54,1.54,0,0,0,.16.73C43.94,46.39,55,53.32,64.43,59,74.79,65.32,84,69.7,87.73,70.78c.5.15.87.11,1-.1a.05.05,0,0,1,.05,0,.07.07,0,0,1,.08,0s0,.06-.36.74v0a0,0,0,0,1,0,0A.57.57,0,0,1,88.16,71.54Zm-46.35-28c-.73,2,11.54,9.46,22.35,16,13,7.9,23.42,12.32,24.22,11.76h0l.21-.38a1.49,1.49,0,0,1-.9,0c-3.75-1.08-13-5.47-23.34-11.76-18-10.92-21.28-14-22.12-15.48a1.79,1.79,0,0,1-.17-.59Z"/><path class="cls-5" d="M64.85,49.69c8.16-.06,18.23-1.11,24-3.42l-1.25-2c-3.42,1.89-13.55,3.14-22.85,3.33-11-.11-18.77-1.13-22.66-3.74L41,46c7.15,3,14.47,3.67,23.9,3.7"/><path class="cls-5" d="M89.22,46.31c-.2.32-4,1.62-9.55,2.59A100.24,100.24,0,0,1,64.82,50a104.64,104.64,0,0,1-14.23-.9,41.91,41.91,0,0,1-10-2.64l.28-.56a43.28,43.28,0,0,0,9.79,2.6,106.26,106.26,0,0,0,14.12.9,99.48,99.48,0,0,0,14.75-1.1c5.71-.92,8.83-2.1,9.27-2.65Zm-1.1-2.06c-.62.5-3.7,1.59-9.13,2.46a97.29,97.29,0,0,1-14.11,1,93.75,93.75,0,0,1-13.63-.88,37.83,37.83,0,0,1-9.51-2.39l.33-.55c.82.42,3.65,1.57,9.24,2.36a98.07,98.07,0,0,0,13.57.84,97.18,97.18,0,0,0,14-1c5.45-.75,8.39-2.15,8.84-2.5l.39.66"/><path d="M64.7,50.05a105.33,105.33,0,0,1-14.12-.9,42.2,42.2,0,0,1-9.88-2.6l-.12,0a.1.1,0,0,1,0,0,.06.06,0,0,1,0-.06,1.79,1.79,0,0,0,.12-.24l.16-.32a.08.08,0,0,1,.1,0,43.6,43.6,0,0,0,9.78,2.59,104.55,104.55,0,0,0,14,.9h.11A100.28,100.28,0,0,0,79.53,48.2c5.64-.91,8.79-2.09,9.23-2.63a.07.07,0,0,1,.06,0,.05.05,0,0,1,.06,0l.41.69a.11.11,0,0,1,0,.08l0,0C89,46.76,85.06,48,79.68,49a100,100,0,0,1-14.86,1.08Zm-24-3.66h0A41.61,41.61,0,0,0,50.6,49a104.92,104.92,0,0,0,14.1.9h.12a98.57,98.57,0,0,0,14.84-1.07c5.52-1,9.08-2.21,9.46-2.52l-.32-.56c-.62.56-3.52,1.69-9.24,2.61A99.43,99.43,0,0,1,64.8,49.44a103.15,103.15,0,0,1-14.12-.9A43.19,43.19,0,0,1,40.93,46l-.13.25Zm24,1.39a95.41,95.41,0,0,1-13.52-.88,37.08,37.08,0,0,1-9.08-2.24l-.44-.16,0,0a.13.13,0,0,1,0-.06c.1-.19.21-.36.32-.55a.1.1,0,0,1,.1,0c.49.25,3.19,1.5,9.22,2.35A95.87,95.87,0,0,0,64.76,47h.12a97.46,97.46,0,0,0,14-1c5.21-.72,8.27-2.07,8.8-2.48a.06.06,0,0,1,.06,0,.05.05,0,0,1,.05,0l.4.66a.08.08,0,0,1,0,.1c-.61.49-3.63,1.59-9.17,2.48a100.3,100.3,0,0,1-14.12,1Zm-22.9-3.4.36.14a36.87,36.87,0,0,0,9,2.23,96.71,96.71,0,0,0,13.5.87h.12a97,97,0,0,0,14.1-1c5.35-.85,8.33-1.9,9-2.4l-.32-.53c-.59.39-3.41,1.72-8.8,2.46a96.21,96.21,0,0,1-14,1h-.12a96.09,96.09,0,0,1-13.46-.85c-5.83-.82-8.57-2-9.2-2.33Z"/><path class="cls-5" d="M38,59.53c5,2.7,16.17,4.06,26.73,4.15,9.61,0,22.12-1.48,26.81-4L91.45,57C90,59.3,76.57,61.5,64.66,61.41S41.7,59.48,38,57.1l0,2.43"/><path class="cls-5" d="M91.83,59.14v.65c-.7.83-5.11,2.11-10.65,3a109.33,109.33,0,0,1-16.54,1.13,103.41,103.41,0,0,1-15.7-1.08c-6.35-.92-10.41-2.54-11.23-3v-.75c2.45,1.62,9.08,2.82,11.31,3.18a103.8,103.8,0,0,0,15.61,1.07A109.52,109.52,0,0,0,81.09,62.2c4-.58,9.63-2.07,10.74-3.06Zm0-2.29v.64c-.71.84-5.12,2.11-10.65,3a109.33,109.33,0,0,1-16.54,1.13A103.41,103.41,0,0,1,49,60.55c-6.36-.92-10.42-2.54-11.24-3v-.75C40.17,58.4,46.81,59.59,49,60A103.59,103.59,0,0,0,64.65,61,108.11,108.11,0,0,0,81.1,59.9c4-.57,9.62-2.06,10.74-3"/><path d="M64.64,64a104.21,104.21,0,0,1-15.71-1.08c-6.08-.88-10.28-2.46-11.26-3a.08.08,0,0,1,0-.06v-.76a.05.05,0,0,1,0-.06.06.06,0,0,1,.08,0c2.46,1.64,9.26,2.84,11.29,3.17a103.94,103.94,0,0,0,15.59,1.07,109.21,109.21,0,0,0,16.44-1.12c3.94-.57,9.59-2,10.7-3a.08.08,0,0,1,.13.06v.64a.08.08,0,0,1,0,0c-.73.88-5.23,2.15-10.69,3A110.7,110.7,0,0,1,64.64,64ZM37.79,59.77c.72.41,4.63,2,11.17,3a105.12,105.12,0,0,0,15.68,1.08,110.19,110.19,0,0,0,16.53-1.13c5.3-.86,9.83-2.13,10.59-3V59.3c-1.38,1-6.82,2.42-10.65,3A109.55,109.55,0,0,1,64.64,63.4,104.36,104.36,0,0,1,49,62.33c-2-.33-8.65-1.51-11.23-3.12Zm26.86,1.94a105.68,105.68,0,0,1-15.72-1.08c-6.08-.89-10.27-2.46-11.26-3a.08.08,0,0,1,0-.07v-.75a.1.1,0,0,1,0-.07.08.08,0,0,1,.08,0c2.46,1.63,9.26,2.84,11.29,3.17A103.89,103.89,0,0,0,64.65,61a110.54,110.54,0,0,0,16.44-1.12c3.94-.57,9.59-2,10.69-3a.08.08,0,0,1,.13.06v.64s0,0,0,0c-.73.87-5.22,2.15-10.69,3A109.17,109.17,0,0,1,64.65,61.71ZM37.79,57.48a39.75,39.75,0,0,0,11.17,3,103.84,103.84,0,0,0,15.69,1.08,110.38,110.38,0,0,0,16.53-1.13c5.3-.86,9.82-2.12,10.58-3V57c-1.38,1-6.82,2.42-10.65,3a109.31,109.31,0,0,1-16.46,1.13A103,103,0,0,1,49,60c-2-.33-8.65-1.5-11.23-3.12Z"/><path class="cls-5" d="M64.74,74.29a92,92,0,0,1-23.53-3.66L42.73,73c3.69,1.56,13.35,3.87,22.12,3.61s16.45-.93,21.85-3.56l1.57-2.47c-3.69,1.73-16.22,3.68-23.53,3.7"/><path class="cls-5" d="M87.29,72.5c-.23.36-.46.7-.7,1a62.28,62.28,0,0,1-8.26,2.12A74.89,74.89,0,0,1,64.76,76.9C54.52,76.75,46.15,74.75,42.21,73l-.32-.55,0-.08.54.21A72.76,72.76,0,0,0,64.81,76.3a76.31,76.31,0,0,0,13.31-1.22c5.88-1.18,8.26-2.07,9-2.47l.18-.11Zm1.36-2.23v0l-.53.88a56.77,56.77,0,0,1-10.44,2.32,83.16,83.16,0,0,1-12.81,1.09C51.64,74.24,43.07,71.66,41,71l-.3-.58A100.49,100.49,0,0,0,64.88,74a89.73,89.73,0,0,0,12.73-1.09A66.12,66.12,0,0,0,88,70.58L88,70.52l.69-.25"/><path d="M64.76,77c-10.44-.15-18.69-2.17-22.58-3.86,0,0,0,0,0,0l-.32-.55a.11.11,0,0,1,0-.08l.05-.08a.08.08,0,0,1,.09,0l.54.21a71.83,71.83,0,0,0,22.3,3.68H65A75.54,75.54,0,0,0,78.11,75c6.56-1.31,8.52-2.21,9-2.46l.18-.1a.09.09,0,0,1,.1,0,.09.09,0,0,1,0,.1c-.23.36-.47.71-.7,1l0,0a60.85,60.85,0,0,1-8.27,2.12A75.53,75.53,0,0,1,64.76,77Zm-22.5-4c5.82,2.51,15.49,3.74,22.5,3.84a75.18,75.18,0,0,0,13.55-1.24,61.57,61.57,0,0,0,8.23-2.1c.17-.25.35-.5.52-.76-.57.29-2.67,1.17-8.92,2.43A76.94,76.94,0,0,1,65,76.38h-.22a72.15,72.15,0,0,1-22.35-3.69L42,72.51Zm22.62,1.67A88.64,88.64,0,0,1,41,71.09a.1.1,0,0,1-.05,0l-.3-.58a.08.08,0,0,1,0-.08.07.07,0,0,1,.07,0,100.24,100.24,0,0,0,24.13,3.54A85.87,85.87,0,0,0,76.48,73l1.12-.16a66.64,66.64,0,0,0,10.27-2.27h0v0a.1.1,0,0,1,0-.06l.68-.25h0a.09.09,0,0,1,.06,0h0a.09.09,0,0,1,0,.09l-.53.88,0,0a58.79,58.79,0,0,1-10.45,2.32l-1.5.22A77.43,77.43,0,0,1,64.88,74.65ZM41.09,71a88.62,88.62,0,0,0,23.79,3.55,76.83,76.83,0,0,0,11.31-.88l1.5-.21a58.67,58.67,0,0,0,10.39-2.31l.43-.71-.43.16v0a.12.12,0,0,1,0,.05l-.11,0A66.55,66.55,0,0,1,77.62,73l-1.12.16a85.93,85.93,0,0,1-11.62.94,100,100,0,0,1-24-3.51Z"/><path class="cls-5" d="M88.78,57.39a25.79,25.79,0,0,1-7,17.43,25.11,25.11,0,0,1-17.16,7.11c-7.66.15-14.88-4.85-16.82-7a25.61,25.61,0,0,1-7-17.08c.47-8.29,3.72-14.06,8.44-18A25.23,25.23,0,0,1,65.52,34a24.88,24.88,0,0,1,18,9c3.19,3.85,4.57,8,5.29,14.36Zm-24.08-26A26.65,26.65,0,1,1,38,58,26.81,26.81,0,0,1,64.7,31.38"/><path d="M64.78,84.84A26.82,26.82,0,1,1,91.59,58,26.84,26.84,0,0,1,64.78,84.84Zm0-53.47A26.66,26.66,0,1,0,91.43,58,26.69,26.69,0,0,0,64.78,31.37Zm0,52.88a26.32,26.32,0,1,1,18.5-7.7A26,26,0,0,1,64.78,84.25Zm0-52.29a26.17,26.17,0,1,0,18.39,7.66A25.9,25.9,0,0,0,64.78,32Zm0,50.61a24.67,24.67,0,1,1,17.33-7.22A24.38,24.38,0,0,1,64.8,82.57Zm0-49A24.51,24.51,0,1,0,82,40.76,24.26,24.26,0,0,0,64.8,33.59ZM64.8,82a24.05,24.05,0,1,1,16.92-7A23.81,23.81,0,0,1,64.8,82Zm0-47.8a23.92,23.92,0,1,0,16.81,7A23.63,23.63,0,0,0,64.8,34.18Z"/><polygon class="cls-5" points="65.64 30.87 65.64 31.17 63.95 31.17 63.95 30.88 63.37 30.88 63.37 85.21 63.95 85.21 63.95 84.96 65.65 84.96 65.65 85.22 66.23 85.22 66.22 30.87 65.64 30.87"/><path d="M65.63,85H64a.08.08,0,0,1-.08-.08.09.09,0,0,1,.08-.08h1.63a.09.09,0,0,1,.08.08A.08.08,0,0,1,65.63,85Zm0-53.72H64a.07.07,0,0,1-.08-.08.07.07,0,0,1,.08-.07h1.62a.08.08,0,0,1,.08.07A.08.08,0,0,1,65.62,31.26Z"/><path d="M66.23,85.29h-.58a.08.08,0,0,1-.08-.08V30.88a.14.14,0,0,1,0-.06.08.08,0,0,1,.06,0h.58a.07.07,0,0,1,.07.08V85.21a.08.08,0,0,1,0,.06Zm-.5-.15h.43V31h-.43ZM64,85.29h-.59a.07.07,0,0,1-.07-.08V30.89h0a.08.08,0,0,1,.08-.08H64a.08.08,0,0,1,.08.08V85.21a.08.08,0,0,1,0,.06Zm-.51-.15h.43V31h-.43Z"/><path class="cls-5" d="M38,56.89c3.35-3.09,15.72-5.09,26.69-5s24,2.31,26.8,5l0,2.3C89.1,56.9,79,54.24,64.66,54.21s-24.75,2.7-26.71,5V56.89"/><path d="M91.53,59.14a.07.07,0,0,1-.08-.08v-2a.07.07,0,0,1,.08-.08.07.07,0,0,1,.07.08v2A.07.07,0,0,1,91.53,59.14Zm-53.59-.08a.09.09,0,0,1-.08-.08V57A.08.08,0,0,1,38,57v2A.09.09,0,0,1,37.94,59.06Z"/><path class="cls-5" d="M64.79,53.89a93.24,93.24,0,0,1,17.29,1.54c5,1,8.55,2.26,9.75,3.67v.69C90.38,58,85.63,56.76,82,56a92.06,92.06,0,0,0-17.18-1.53,95.13,95.13,0,0,0-17.55,1.57c-3.81.75-8.9,2.26-9.53,3.74v-.73c.35-1,4.13-2.56,9.45-3.62a96.06,96.06,0,0,1,17.63-1.56Zm0-2.29a91.74,91.74,0,0,1,17.3,1.54c5,1,8.54,2.26,9.74,3.66v.7c-1.45-1.75-6.2-3-9.86-3.77A92.06,92.06,0,0,0,64.79,52.2a95.74,95.74,0,0,0-17.52,1.56c-3.68.7-9,2.26-9.56,3.75v-.73c.35-1,4.21-2.6,9.45-3.62A95.27,95.27,0,0,1,64.79,51.6"/><path d="M37.71,59.88h0s-.06,0-.06-.07v-.75C38,58,42,56.4,47.14,55.37a97.05,97.05,0,0,1,17.65-1.56v0A92.64,92.64,0,0,1,82.1,55.36c5.23,1,8.62,2.32,9.79,3.69a.08.08,0,0,1,0,.05v.69a.09.09,0,0,1,0,.08.08.08,0,0,1-.09,0C90.23,58,85,56.7,82,56.1a91.73,91.73,0,0,0-17-1.53h-.18a95.47,95.47,0,0,0-17.53,1.56c-4.16.83-8.9,2.34-9.48,3.7A.08.08,0,0,1,37.71,59.88ZM65,54.41A92,92,0,0,1,82,56c2.94.59,8,1.83,9.76,3.64v-.46c-1.17-1.34-4.52-2.59-9.69-3.62A92.2,92.2,0,0,0,65,54h-.18a95.83,95.83,0,0,0-17.62,1.56c-4.24.84-9,2.38-9.38,3.56v.42C38.92,58,44.16,56.59,47.23,56a95.77,95.77,0,0,1,17.56-1.57ZM37.71,57.58h0a.08.08,0,0,1-.07-.07v-.75c.38-1.12,4.47-2.7,9.5-3.68a96.25,96.25,0,0,1,17.65-1.56v0H65A93.34,93.34,0,0,1,82.1,53.06c5.24,1,8.62,2.33,9.79,3.69a.06.06,0,0,1,0,0v.7a.08.08,0,0,1,0,.07.1.1,0,0,1-.09,0C90.24,55.7,85,54.41,82,53.81a92,92,0,0,0-17.17-1.53,95.38,95.38,0,0,0-17.5,1.56c-4.21.8-9,2.37-9.51,3.7A.07.07,0,0,1,37.71,57.58ZM65,52.12a92,92,0,0,1,17,1.53c2.94.59,8.05,1.84,9.77,3.65v-.47c-1.17-1.33-4.51-2.58-9.69-3.61A92.12,92.12,0,0,0,65,51.67h-.18a96.8,96.8,0,0,0-17.62,1.56c-5.45,1.06-9,2.64-9.38,3.56v.43c1.08-1.47,6.14-2.9,9.47-3.53a95.59,95.59,0,0,1,17.53-1.57Z"/><path class="cls-5" d="M64.66,39.9c10,0,18.63,1.39,22.6,3.42l1.45,2.51C85.25,44,75.89,42,64.67,42.32c-9.14.06-18.9,1-23.8,3.63l1.73-2.89c4-2.09,13.5-3.15,22.06-3.16"/><path d="M88.49,45.39a.06.06,0,0,1-.06,0l-1-1.58a.08.08,0,0,1,0-.11.09.09,0,0,1,.11,0l1,1.58a.09.09,0,0,1,0,.11Z"/><path class="cls-5" d="M64.79,42a89.44,89.44,0,0,1,15.52,1.09c4.06.75,7.93,1.89,8.49,2.5l.43.76c-1.35-.88-4.7-1.86-9-2.68a87,87,0,0,0-15.45-1.06,89.2,89.2,0,0,0-15.65,1.06c-4.52.84-7.65,2-8.42,2.62l.42-.8A28.18,28.18,0,0,1,49,43.05,91,91,0,0,1,64.79,42Zm0-2.29a86.65,86.65,0,0,1,15,1c3.3.64,6.56,1.64,7.75,2.53l.63,1c-1.07-1.19-5.09-2.31-8.63-2.94a94.23,94.23,0,0,0-14.72-1,89.33,89.33,0,0,0-15.05,1.1c-3.9.75-6.42,1.62-7.48,2.31l.55-.83a26.4,26.4,0,0,1,6.83-2.07,89.62,89.62,0,0,1,15.15-1.1"/><path d="M89.23,46.4l0,0c-1.32-.86-4.6-1.83-9-2.66a86.16,86.16,0,0,0-15.43-1.07h-.56a88.23,88.23,0,0,0-15.08,1.06c-4.49.84-7.61,2-8.39,2.62a.06.06,0,0,1-.09,0,.07.07,0,0,1,0-.09l.42-.8,0,0A29,29,0,0,1,49,43a90.22,90.22,0,0,1,15.79-1.08h0A90.71,90.71,0,0,1,80.32,43c4.14.77,8,1.91,8.54,2.53l.44.77a.08.08,0,0,1,0,.09A.05.05,0,0,1,89.23,46.4Zm-24-3.9a84.94,84.94,0,0,1,15,1.07A33.85,33.85,0,0,1,89,46.1l-.28-.5c-.52-.58-4.39-1.71-8.43-2.46A89.49,89.49,0,0,0,64.79,42h0A89.56,89.56,0,0,0,49,43.13a28.7,28.7,0,0,0-7.85,2.39l-.27.52a31,31,0,0,1,8.21-2.48A90.23,90.23,0,0,1,64.78,42.5Zm22.94,1.83a.09.09,0,0,1-.06,0C87,43.08,82.77,42,79.49,41.38a93.36,93.36,0,0,0-14.7-1,89.54,89.54,0,0,0-15,1.11,25.48,25.48,0,0,0-7.45,2.29.08.08,0,0,1-.1,0,.07.07,0,0,1,0-.09l.55-.84,0,0a26.84,26.84,0,0,1,6.86-2.07A90.32,90.32,0,0,1,64.79,39.6h0a87.81,87.81,0,0,1,15,1c3.53.69,6.66,1.71,7.78,2.55l0,0,.62,1a.07.07,0,0,1,0,.1ZM64.79,40.19a93.79,93.79,0,0,1,14.73,1c3,.53,6.75,1.51,8.27,2.61l-.34-.54c-1.11-.82-4.2-1.83-7.7-2.51a88.38,88.38,0,0,0-15-1h0a90.06,90.06,0,0,0-15.14,1.11,26.53,26.53,0,0,0-6.79,2l-.35.53a27.83,27.83,0,0,1,7.21-2.14A88.88,88.88,0,0,1,64.79,40.19Z"/><path class="cls-5" d="M78.07,69.14a69.7,69.7,0,0,0-13.29-1c-16.58.19-21.93,3.4-22.59,4.38l-1.24-2c4.23-3.06,13.25-4.78,23.92-4.6a84.15,84.15,0,0,1,14.34,1.23l-1.14,2"/><path d="M42,72.24a.06.06,0,0,1-.06,0l-.82-1.4a.07.07,0,0,1,0-.1.08.08,0,0,1,.11,0l.81,1.4a.07.07,0,0,1,0,.1Z"/><path class="cls-5" d="M64.69,67.84A80,80,0,0,1,78.2,68.92l-.32.56a70.74,70.74,0,0,0-13.18-1A63.77,63.77,0,0,0,47,70.54C45.31,71,42.49,72.1,42.2,73l-.31-.52c.09-.53,1.79-1.64,5-2.53a64.1,64.1,0,0,1,17.83-2.11Zm.21-2.32a82.94,82.94,0,0,1,14.51,1.26l-.33.59a75.86,75.86,0,0,0-14.16-1.24A68,68,0,0,0,46.35,68.3c-1.91.56-5.21,1.76-5.32,2.71l-.31-.55c.07-.87,2.93-2,5.5-2.75A68.28,68.28,0,0,1,64.9,65.52"/><path d="M42.2,73.08a.06.06,0,0,1-.06,0l-.31-.52a0,0,0,0,1,0,0c.1-.6,1.89-1.71,5-2.59,5.9-1.69,11.4-2.07,17.85-2.11h0a79.9,79.9,0,0,1,13.52,1.08.07.07,0,0,1,.05,0,.08.08,0,0,1,0,.07l-.32.55a.06.06,0,0,1-.07,0,71.46,71.46,0,0,0-13.17-1A62.48,62.48,0,0,0,47,70.61c-1.82.5-4.49,1.59-4.75,2.42a.13.13,0,0,1-.07,0ZM42,72.47l.22.37c.51-.9,3.16-1.92,4.8-2.38A63.15,63.15,0,0,1,64.7,68.39a70.4,70.4,0,0,1,13.14,1l.24-.42a81.49,81.49,0,0,0-13.39-1c-6.44,0-11.92.42-17.81,2.1C43.72,70.91,42.1,72,42,72.47ZM41,71.09a.08.08,0,0,1-.06,0l-.32-.56s0,0,0,0c.1-1.13,4.28-2.43,5.56-2.81,5.1-1.48,11-2.18,18.7-2.19h0a83.33,83.33,0,0,1,14.52,1.26.1.1,0,0,1,0,0,.09.09,0,0,1,0,.07l-.33.58a.07.07,0,0,1-.08,0,75.12,75.12,0,0,0-14.14-1.23c-7.61,0-13.51.7-18.55,2.16-2.47.72-5.17,1.86-5.26,2.65a.09.09,0,0,1-.06.07Zm-.23-.65.21.39c.54-1.18,4.81-2.45,5.32-2.6,5.06-1.47,11-2.16,18.59-2.17A77.42,77.42,0,0,1,79,67.28l.25-.44A81.82,81.82,0,0,0,64.9,65.6c-7.65,0-13.58.71-18.66,2.19C43,68.72,40.89,69.76,40.8,70.44Z"/><path class="cls-5" d="M42.36,43c8.22-.11,46.15,23.18,46.26,27.47l-2.35,3.6c-1.06-5-39.55-27.64-45.9-27.21l2-3.86"/><path d="M86.45,74h0a.09.09,0,0,1,0-.11l2-3.09a.07.07,0,0,1,.11,0,.08.08,0,0,1,0,.1l-2,3.1A.09.09,0,0,1,86.45,74Zm-46-27.23h0a.08.08,0,0,1,0-.11l1.85-3.43a.08.08,0,0,1,.11,0,.08.08,0,0,1,0,.11l-1.85,3.43A.08.08,0,0,1,40.45,46.73Z"/><path class="cls-5" d="M40.14,46.74c1.52-1,12.72,4,24.45,11S87.45,72.86,86.44,74.36l-.33.53L86,75s.2-.23,0-.79c-.5-1.64-8.42-8-21.57-15.9C51.55,50.68,40.87,46.07,39.8,47.39l.34-.65h0Zm48.71,24c1-1.9-9.42-9.73-22.31-17.35C53.36,45.93,43.87,41.53,42.13,42.84l-.39.7s0,0,.1-.11a1.7,1.7,0,0,1,1.07-.26c3,0,11.53,4,23.5,10.84C71.65,57.06,88.56,67.91,88.5,71c0,.26,0,.31-.08.44l.43-.65"/><path d="M86,75.08a.09.09,0,0,1-.07,0,.08.08,0,0,1,0-.11h0s.16-.18,0-.69C85.35,72.56,77,66,64.33,58.38c-13.45-8-23.51-12.13-24.47-11a.08.08,0,0,1-.1,0,.07.07,0,0,1,0-.1l.33-.63a.07.07,0,0,1,0,0c1.63-1.06,12.84,4,24.52,11,10.53,6.38,21.44,14,21.94,16.28a.49.49,0,0,1-.06.42l-.33.52a0,0,0,0,1,0,0l-.16.12h0Zm-45.44-28c2.94,0,12.87,4.59,23.89,11.16C77.26,66,85.48,72.45,86,74.2a1.31,1.31,0,0,1,.12.51l.24-.39a.36.36,0,0,0,0-.31c-.48-2.19-11.63-10-21.87-16.18-11.41-6.89-22.76-12-24.34-11l-.2.37A1.87,1.87,0,0,1,40.52,47.09Zm47.9,24.39h0a.08.08,0,0,1,0-.11l0-.06a.52.52,0,0,0,0-.25V71c.07-3-17.17-14-22-16.89C54.45,47.24,45.9,43.29,42.91,43.25h0a1.5,1.5,0,0,0-1,.24.24.24,0,0,0-.07.09.1.1,0,0,1-.1.05.09.09,0,0,1,0-.09.06.06,0,0,1,0,0l.38-.7,0,0c2.09-1.58,14.48,4.87,24.5,10.55C78.21,60.21,90,68.67,88.92,70.78h0l-.39.59,0,.07A.09.09,0,0,1,88.42,71.48ZM42.91,43.09c3,0,11.59,4,23.53,10.85,3.46,2,22.21,13.69,22.14,17V71l.21-.32c.87-1.76-8.91-9.34-22.29-17.25-14.07-8-22.7-11.73-24.31-10.57l-.19.35a2.05,2.05,0,0,1,.86-.15ZM88.85,70.75h0Z"/><path class="cls-6" d="M48.76,61a16.17,16.17,0,0,0,16,16A16.06,16.06,0,0,0,80.82,61h0V39.61l-32.06,0V61"/><path d="M64.76,77.08A16.24,16.24,0,0,1,48.67,61V39.48h.09l32.15,0V61A16.15,16.15,0,0,1,64.76,77.08ZM48.85,39.66V61a15.94,15.94,0,0,0,31.88,0V39.7Z"/><path class="cls-7" d="M49.36,61v0a15.23,15.23,0,0,0,4.53,10.8,15.35,15.35,0,0,0,21.72,0A15.24,15.24,0,0,0,80.12,61V40.29H49.38l0,20.72M73.94,46.49v14.6a10.73,10.73,0,0,1-.07,1.14,9,9,0,0,1-2.63,5.32A9.19,9.19,0,0,1,55.6,61V46.46l18.35,0"/><path d="M64.75,76.4A15.5,15.5,0,0,1,49.29,61l.14,0v0a15.31,15.31,0,0,0,30.62,0V40.35H49.45l0,20.65h-.14l0-20.79H80.19V61A15.43,15.43,0,0,1,64.75,76.4Zm0-6.1A9.34,9.34,0,0,1,55.53,61V46.39h.07l18.37,0,.2.14H74V61.09a10.6,10.6,0,0,1-.07,1.15,9,9,0,0,1-2.65,5.36A9.21,9.21,0,0,1,64.74,70.3ZM55.66,46.52V61a9.12,9.12,0,0,0,2.69,6.42,9,9,0,0,0,12.83,0,8.84,8.84,0,0,0,2.61-5.28,8.26,8.26,0,0,0,.07-1.13V46.56Z"/><path class="cls-8" d="M62.81,58.65h0a2.26,2.26,0,0,0,.6,1.54,2,2,0,0,0,1.43.64,1.93,1.93,0,0,0,1.43-.64,2.24,2.24,0,0,0,.6-1.54v-2.9H62.82v2.91"/><path class="cls-8" d="M62.79,65.61h0a2.26,2.26,0,0,0,.6,1.54,2,2,0,0,0,1.43.64,1.91,1.91,0,0,0,1.43-.64,2.24,2.24,0,0,0,.6-1.54v-2.9h-4v2.91"/><path class="cls-8" d="M57.2,58.66h0a2.23,2.23,0,0,0,.59,1.54,1.93,1.93,0,0,0,2.87,0,2.25,2.25,0,0,0,.59-1.53V55.76h-4v2.9"/><path class="cls-8" d="M68.41,58.66h0A2.26,2.26,0,0,0,69,60.2a2,2,0,0,0,1.43.64,1.91,1.91,0,0,0,1.43-.64,2.24,2.24,0,0,0,.6-1.54v-2.9h-4v2.91"/><path class="cls-8" d="M62.81,51.63h0a2.23,2.23,0,0,0,.6,1.53,1.93,1.93,0,0,0,1.43.64,2,2,0,0,0,1.43-.63,2.25,2.25,0,0,0,.59-1.54V48.72h-4v2.91"/><polyline class="cls-5" points="54.42 42.22 54.45 43.16 53.34 43.16 53.37 42.22 54.42 42.22"/><path class="cls-5" d="M51.35,45.7a1.89,1.89,0,0,1,1.1-1.85,1.83,1.83,0,0,1,1.14,1.86H51.35"/><path class="cls-5" d="M50.44,43.87l-.19,1.72h1.12a1.53,1.53,0,0,1,1.1-1.65,1.65,1.65,0,0,1,1.11,1.65H54.7l-.21-1.73H50.44"/><path d="M51.44,45.66H50.18l.2-1.85h4.17l.22,1.86H53.51v-.07a1.59,1.59,0,0,0-1-1.58,1.46,1.46,0,0,0-1,1.58Zm2.2-.14h1l-.19-1.59H52.65a1.54,1.54,0,0,1,.43.29A1.81,1.81,0,0,1,53.64,45.52Zm-3.31,0h1a1.74,1.74,0,0,1,.61-1.38,1.57,1.57,0,0,1,.34-.2H50.5Z"/><path class="cls-5" d="M50.18,45.6h4.58a.19.19,0,0,1,.17.21.2.2,0,0,1-.17.21H50.18a.2.2,0,0,1-.18-.21.19.19,0,0,1,.18-.21"/><path d="M54.76,46.09H50.18a.27.27,0,0,1-.24-.28.26.26,0,0,1,.24-.28h4.58a.26.26,0,0,1,.24.28A.27.27,0,0,1,54.76,46.09Zm-4.58-.43c-.06,0-.11.07-.11.15a.13.13,0,0,0,.11.14h4.58c.05,0,.1-.06.1-.14s0-.15-.1-.15Z"/><path class="cls-5" d="M51.84,45.59a1.17,1.17,0,0,1,.62-1.15,1.19,1.19,0,0,1,.63,1.15H51.84"/><path d="M53.16,45.65H51.78v-.06a1.19,1.19,0,0,1,.68-1.22h0a1.24,1.24,0,0,1,.68,1.21Zm-1.25-.13H53a1.14,1.14,0,0,0-.57-1A1.14,1.14,0,0,0,51.91,45.52Z"/><path class="cls-5" d="M50.28,43.17h4.38a.17.17,0,0,1,.17.19.18.18,0,0,1-.17.19H50.28a.18.18,0,0,1-.17-.19.17.17,0,0,1,.17-.19"/><path d="M54.66,43.61H50.28a.25.25,0,0,1-.24-.26.25.25,0,0,1,.24-.25h4.38a.25.25,0,0,1,.24.25A.25.25,0,0,1,54.66,43.61Zm-4.38-.38a.11.11,0,0,0-.1.12c0,.07,0,.13.1.13h4.38c.06,0,.1-.06.1-.13a.11.11,0,0,0-.1-.12Z"/><path class="cls-5" d="M50.37,43.55h4.19a.17.17,0,0,1,.16.19.18.18,0,0,1-.16.19H50.37a.18.18,0,0,1-.16-.19.17.17,0,0,1,.16-.19"/><path d="M54.56,44H50.37a.25.25,0,0,1-.23-.26.24.24,0,0,1,.23-.26h4.19a.24.24,0,0,1,.23.26A.25.25,0,0,1,54.56,44Zm-4.19-.39s-.09.06-.09.13,0,.12.09.12h4.19a.12.12,0,0,0,.1-.12.12.12,0,0,0-.1-.13Z"/><path class="cls-5" d="M51.74,40.69h.32v.23h.24v-.24h.33v.24h.24v-.24h.33v.55a.14.14,0,0,1-.14.14H51.89a.15.15,0,0,1-.15-.15v-.53"/><path d="M53.07,41.43H51.88a.21.21,0,0,1-.22-.21v-.6h.46v.24h.11v-.24h.47v.24h.11v-.24h.48v.61A.2.2,0,0,1,53.07,41.43Zm-1.28-.67v.46a.09.09,0,0,0,.09.08h1.19a.07.07,0,0,0,.08-.07v-.48H53V41h-.38v-.24h-.21V41H52v-.23Z"/><polyline class="cls-5" points="52.97 41.41 53.05 43.16 51.88 43.15 51.96 41.41 52.97 41.41"/><path d="M53.12,43.22H51.81l.09-1.88H53ZM52,43.08h1l-.07-1.61H52Z"/><path class="cls-5" d="M53.17,41.54h.32v.24h.24v-.24h.33v.24h.24v-.24h.33v.54a.14.14,0,0,1-.15.14H53.32a.15.15,0,0,1-.15-.14v-.54"/><path d="M54.52,43.23H53.27l0-1.08h1.11v.07h.07Zm-1.11-.14h1l0-.8h-.91Z"/><path d="M54.48,42.28H53.32a.21.21,0,0,1-.22-.2v-.61h.46v.24h.1v-.24h.47v.24h.1v-.24h.46v.61A.2.2,0,0,1,54.48,42.28Zm-1.25-.67v.47a.09.09,0,0,0,.09.07h1.16a.07.07,0,0,0,.08-.07V41.6h-.2v.24H54V41.6h-.2v.24h-.37v-.23Z"/><path class="cls-5" d="M50.3,41.54h.32v.24h.24v-.24h.33v.24h.24v-.24h.33v.54a.13.13,0,0,1-.14.14H50.45a.15.15,0,0,1-.15-.14v-.54"/><path d="M51.62,42.29H50.45a.22.22,0,0,1-.22-.21v-.61h.46v.24h.1v-.24h.47v.24h.1v-.24h.47v.61A.21.21,0,0,1,51.62,42.29Zm-1.25-.68v.47a.08.08,0,0,0,.08.07h1.17a.08.08,0,0,0,.08-.07V41.6h-.2v.25h-.37v-.24h-.2v.25h-.37v-.24Z"/><polyline class="cls-5" points="51.55 42.22 51.59 43.16 50.48 43.16 50.51 42.22 51.55 42.22"/><path d="M51.66,43.23H50.41l0-1.08h1.09l.09-.09Zm-1.11-.14h1l0-.8h-.92Z"/><path class="cls-9" d="M52.35,42a.12.12,0,1,1,.24,0v.42h-.24V42"/><path class="cls-9" d="M53.79,42.57a.11.11,0,1,1,.22,0v.32h-.22v-.32"/><path class="cls-9" d="M50.91,42.57a.12.12,0,1,1,.23,0v.32h-.23v-.32"/><polyline class="cls-5" points="66.76 42.22 66.8 43.16 65.68 43.16 65.71 42.22 66.76 42.22"/><path class="cls-5" d="M63.69,45.7a1.87,1.87,0,0,1,1.11-1.85,1.86,1.86,0,0,1,1.14,1.86H63.69"/><path class="cls-5" d="M62.78,43.87l-.18,1.72h1.11a1.54,1.54,0,0,1,1.1-1.65,1.65,1.65,0,0,1,1.11,1.65H67l-.2-1.73H62.78"/><path d="M63.78,45.66H62.52l.2-1.85H66.9l.22,1.86H65.85v-.07a1.59,1.59,0,0,0-1-1.58,1.49,1.49,0,0,0-1,1.58Zm2.2-.14h1l-.18-1.59H65a1.54,1.54,0,0,1,.43.29A1.81,1.81,0,0,1,66,45.52Zm-3.31,0h1a1.72,1.72,0,0,1,.61-1.37,1.31,1.31,0,0,1,.34-.21H62.84Z"/><path class="cls-5" d="M62.52,45.6H67.1a.19.19,0,0,1,.17.21.2.2,0,0,1-.17.21H62.52a.2.2,0,0,1-.17-.21.19.19,0,0,1,.17-.21"/><path d="M67.1,46.09H62.52a.27.27,0,0,1-.24-.28.26.26,0,0,1,.24-.28H67.1a.26.26,0,0,1,.24.28A.27.27,0,0,1,67.1,46.09Zm-4.58-.43c-.06,0-.11.07-.11.15a.13.13,0,0,0,.11.14H67.1a.13.13,0,0,0,.11-.14c0-.08,0-.15-.11-.15Z"/><path class="cls-5" d="M64.19,45.59a1.18,1.18,0,0,1,.61-1.15,1.21,1.21,0,0,1,.64,1.15H64.19"/><path d="M65.5,45.65H64.12v-.06a1.19,1.19,0,0,1,.68-1.22h0a1.26,1.26,0,0,1,.67,1.21Zm-1.25-.13h1.12a1.14,1.14,0,0,0-.57-1A1.16,1.16,0,0,0,64.25,45.52Z"/><path class="cls-5" d="M62.62,43.17H67a.17.17,0,0,1,.16.19.18.18,0,0,1-.16.19H62.62a.19.19,0,0,1-.17-.19.18.18,0,0,1,.17-.19"/><path d="M67,43.61H62.62a.25.25,0,0,1-.24-.26.25.25,0,0,1,.24-.25H67a.24.24,0,0,1,.23.25A.24.24,0,0,1,67,43.61Zm-4.39-.38a.12.12,0,0,0-.1.12.12.12,0,0,0,.1.13H67a.12.12,0,0,0,.1-.13.12.12,0,0,0-.1-.12Z"/><path class="cls-5" d="M62.71,43.55h4.2a.17.17,0,0,1,.16.19.18.18,0,0,1-.16.19h-4.2a.18.18,0,0,1-.16-.19.17.17,0,0,1,.16-.19"/><path d="M66.91,44h-4.2a.25.25,0,0,1-.23-.26.25.25,0,0,1,.23-.26h4.2a.24.24,0,0,1,.22.26A.25.25,0,0,1,66.91,44Zm-4.2-.39c-.05,0-.09.06-.09.13s0,.12.09.12h4.2s.09-.06.09-.12,0-.13-.09-.13Z"/><path class="cls-5" d="M64.08,40.69h.33v.23h.23v-.24H65v.24h.23v-.24h.33v.55a.14.14,0,0,1-.14.14H64.23a.16.16,0,0,1-.15-.15v-.53"/><path d="M65.41,41.43H64.22a.21.21,0,0,1-.22-.21v-.6h.47v.24h.1v-.24h.48v.24h.1v-.24h.48v.61A.21.21,0,0,1,65.41,41.43Zm-1.28-.67v.46a.1.1,0,0,0,.09.08h1.19a.07.07,0,0,0,.08-.07v-.48h-.2V41h-.38v-.24h-.2V41h-.38v-.23Z"/><polyline class="cls-5" points="65.31 41.41 65.39 43.16 64.23 43.15 64.3 41.41 65.31 41.41"/><path d="M65.46,43.22h-1.3l.08-1.88h1.14Zm-1.16-.14h1l-.07-1.61h-.88Z"/><path class="cls-5" d="M65.51,41.54h.32v.24h.24v-.24h.33v.24h.24v-.24H67v.54a.14.14,0,0,1-.15.14H65.66a.15.15,0,0,1-.15-.14v-.54"/><path d="M66.87,43.23H65.61l0-1.08h1.11v.07h.07Zm-1.12-.14h1l0-.8h-.92Z"/><path d="M66.83,42.28H65.66a.21.21,0,0,1-.22-.2v-.61h.46v.24H66v-.24h.47v.24h.1v-.24H67v.61A.21.21,0,0,1,66.83,42.28Zm-1.25-.67v.47a.09.09,0,0,0,.08.07h1.17a.07.07,0,0,0,.07-.07V41.6h-.19v.24h-.38V41.6h-.19v.24h-.38v-.23Z"/><path class="cls-5" d="M62.64,41.54H63v.24h.23v-.24h.34v.24h.23v-.24h.34v.54a.14.14,0,0,1-.15.14H62.79a.15.15,0,0,1-.15-.14v-.54"/><path d="M64,42.29H62.79a.22.22,0,0,1-.21-.21v-.61H63v.24h.11v-.24h.46v.24h.11v-.24h.46v.61A.21.21,0,0,1,64,42.29Zm-1.25-.68v.47a.08.08,0,0,0,.08.07H64a.07.07,0,0,0,.08-.07V41.6h-.2v.25h-.37v-.24h-.2v.25H62.9v-.24Z"/><polyline class="cls-5" points="63.9 42.22 63.93 43.16 62.82 43.16 62.85 42.22 63.9 42.22"/><path d="M64,43.23H62.75l0-1.08H63.9v.07H64Zm-1.11-.14h1l0-.8h-.91Z"/><path class="cls-9" d="M64.7,42a.12.12,0,1,1,.23,0v.42H64.7V42"/><path class="cls-9" d="M66.13,42.57a.11.11,0,1,1,.22,0v.32h-.22v-.32"/><path class="cls-9" d="M63.26,42.57a.11.11,0,1,1,.22,0v.32h-.22v-.32"/><polyline class="cls-5" points="78.97 42.22 79 43.16 77.89 43.16 77.92 42.22 78.97 42.22"/><path class="cls-5" d="M75.9,45.7A1.87,1.87,0,0,1,77,43.85a1.84,1.84,0,0,1,1.14,1.86H75.9"/><path class="cls-5" d="M75,43.87l-.19,1.72h1.12A1.53,1.53,0,0,1,77,43.94a1.64,1.64,0,0,1,1.1,1.65h1.13L79,43.86H75"/><path d="M76,45.66H74.73l.2-1.85H79.1l.22,1.86H78.06v-.07A1.59,1.59,0,0,0,77,44a1.48,1.48,0,0,0-1,1.58Zm2.2-.14h1L79,43.93H77.2a1.54,1.54,0,0,1,.43.29A1.81,1.81,0,0,1,78.19,45.52Zm-3.31,0h1a1.78,1.78,0,0,1,.61-1.37,1.35,1.35,0,0,1,.35-.21H75.05Z"/><path class="cls-5" d="M74.73,45.6H79.3a.19.19,0,0,1,.18.21.2.2,0,0,1-.18.21H74.73a.2.2,0,0,1-.18-.21.19.19,0,0,1,.18-.21"/><path d="M79.3,46.09H74.73a.27.27,0,0,1-.25-.28.26.26,0,0,1,.25-.28H79.3a.26.26,0,0,1,.25.28A.27.27,0,0,1,79.3,46.09Zm-4.57-.43c-.06,0-.11.07-.11.15a.13.13,0,0,0,.11.14H79.3a.13.13,0,0,0,.11-.14c0-.08,0-.15-.11-.15Z"/><path class="cls-5" d="M76.39,45.59A1.19,1.19,0,0,1,77,44.44a1.17,1.17,0,0,1,.64,1.15H76.39"/><path d="M77.71,45.65H76.32v-.06A1.22,1.22,0,0,1,77,44.37a1.24,1.24,0,0,1,.71,1.22Zm-1.25-.13h1.11a1.16,1.16,0,0,0-.57-1A1.16,1.16,0,0,0,76.46,45.52Z"/><path class="cls-5" d="M74.82,43.17h4.39a.18.18,0,0,1,.17.19.19.19,0,0,1-.17.19H74.82a.18.18,0,0,1-.16-.19.17.17,0,0,1,.16-.19"/><path d="M79.21,43.61H74.82a.25.25,0,0,1-.23-.26.24.24,0,0,1,.23-.25h4.39a.25.25,0,0,1,.24.25A.25.25,0,0,1,79.21,43.61Zm-4.39-.38a.12.12,0,0,0-.1.12.12.12,0,0,0,.1.13h4.39c.06,0,.1-.06.1-.13a.11.11,0,0,0-.1-.12Z"/><path class="cls-5" d="M74.92,43.55h4.19a.17.17,0,0,1,.16.19.18.18,0,0,1-.16.19H74.92a.18.18,0,0,1-.16-.19.17.17,0,0,1,.16-.19"/><path d="M79.11,44H74.92a.25.25,0,0,1-.23-.26.24.24,0,0,1,.23-.26h4.19a.24.24,0,0,1,.23.26A.25.25,0,0,1,79.11,44Zm-4.19-.39a.12.12,0,0,0-.1.13.12.12,0,0,0,.1.12h4.19a.12.12,0,0,0,.1-.12.12.12,0,0,0-.1-.13Z"/><path class="cls-5" d="M76.29,40.69h.32v.23h.24v-.24h.33v.24h.24v-.24h.33v.55a.14.14,0,0,1-.14.14H76.44a.15.15,0,0,1-.15-.15v-.53"/><path d="M77.62,41.43H76.43a.22.22,0,0,1-.23-.21v-.6h.47v.24h.11v-.24h.47v.24h.11v-.24h.47v.61A.2.2,0,0,1,77.62,41.43Zm-1.28-.67v.46a.09.09,0,0,0,.09.08h1.19a.07.07,0,0,0,.08-.07v-.48h-.21V41h-.37v-.24h-.21V41h-.37v-.23Z"/><polyline class="cls-5" points="77.52 41.41 77.59 43.16 76.43 43.15 76.51 41.41 77.52 41.41"/><path d="M77.67,43.22H76.36l.09-1.88h1.13Zm-1.17-.14h1l-.06-1.61h-.89Z"/><path class="cls-5" d="M77.71,41.54H78v.24h.23v-.24h.34v.24h.23v-.24h.34v.54a.14.14,0,0,1-.15.14H77.86a.15.15,0,0,1-.15-.14v-.54"/><path d="M79.07,43.23H77.82l0-1.08H79v.07H79ZM78,43.09h1l0-.8H78Z"/><path d="M79,42.28H77.86a.21.21,0,0,1-.21-.2v-.61h.46v.24h.1v-.24h.46v.24h.11v-.24h.46v.61A.2.2,0,0,1,79,42.28Zm-1.25-.67v.47a.09.09,0,0,0,.08.07H79a.07.07,0,0,0,.08-.07V41.6h-.2v.24h-.37V41.6h-.2v.24H78v-.23Z"/><path class="cls-5" d="M74.85,41.54h.32v.24h.24v-.24h.33v.24H76v-.24h.33v.54a.14.14,0,0,1-.14.14H75a.15.15,0,0,1-.15-.14v-.54"/><path d="M76.17,42.29H75a.22.22,0,0,1-.22-.21v-.61h.46v.24h.1v-.24h.47v.24h.1v-.24h.47v.61A.21.21,0,0,1,76.17,42.29Zm-1.25-.68v.47a.08.08,0,0,0,.08.07h1.17a.07.07,0,0,0,.07-.07V41.6h-.19v.25h-.38v-.24h-.19v.25h-.37v-.24Z"/><polyline class="cls-5" points="76.1 42.22 76.14 43.16 75.02 43.16 75.05 42.22 76.1 42.22"/><path d="M76.21,43.23H75l0-1.08H76.1v.07h.07Zm-1.12-.14h1l0-.8h-.92Z"/><path class="cls-9" d="M76.9,42a.12.12,0,1,1,.23,0v.42H76.9V42"/><path class="cls-9" d="M78.34,42.57a.11.11,0,1,1,.22,0v.32h-.22v-.32"/><path class="cls-9" d="M75.46,42.57a.12.12,0,1,1,.23,0v.32h-.23v-.32"/><polyline class="cls-5" points="54.42 54.73 54.45 55.67 53.34 55.67 53.37 54.73 54.42 54.73"/><path class="cls-5" d="M51.35,58.2a1.9,1.9,0,0,1,1.1-1.85,1.85,1.85,0,0,1,1.14,1.87l-2.24,0"/><path class="cls-5" d="M50.44,56.38l-.19,1.71h1.12a1.52,1.52,0,0,1,1.1-1.65,1.65,1.65,0,0,1,1.11,1.65H54.7l-.21-1.73H50.44"/><path d="M51.44,58.17H50.18l.2-1.84,4.17,0,.22,1.87H53.51V58.1a1.57,1.57,0,0,0-1-1.58,1.46,1.46,0,0,0-1,1.58Zm2.2-.14h1l-.19-1.59H52.65a1.61,1.61,0,0,1,.43.3A1.79,1.79,0,0,1,53.64,58Zm-3.31,0h1a1.73,1.73,0,0,1,.6-1.37,1.79,1.79,0,0,1,.35-.22H50.5Z"/><path class="cls-5" d="M50.18,58.1h4.58a.2.2,0,0,1,.17.21.19.19,0,0,1-.17.21H50.18a.19.19,0,0,1-.18-.21.2.2,0,0,1,.18-.21"/><path d="M54.76,58.59H50.18a.26.26,0,0,1-.24-.28.26.26,0,0,1,.24-.27h4.58a.26.26,0,0,1,.24.27A.26.26,0,0,1,54.76,58.59Zm-4.58-.42c-.06,0-.11.07-.11.14s0,.15.11.15h4.58c.05,0,.1-.07.1-.15s0-.14-.1-.14Z"/><path class="cls-5" d="M51.84,58.09A1.17,1.17,0,0,1,52.46,57a1.18,1.18,0,0,1,.63,1.14H51.84"/><path d="M53.16,58.16H51.78v-.07a1.3,1.3,0,0,1,.57-1.16c.09-.06.11,0,.14,0a1.24,1.24,0,0,1,.67,1.2ZM51.91,58H53a1.14,1.14,0,0,0-.57-1A1.12,1.12,0,0,0,51.91,58Z"/><path class="cls-5" d="M50.28,55.67h4.38a.18.18,0,0,1,.17.19.17.17,0,0,1-.17.19H50.28a.17.17,0,0,1-.17-.19.18.18,0,0,1,.17-.19"/><path d="M54.66,56.12H50.28a.26.26,0,0,1,0-.52h4.38a.26.26,0,0,1,0,.52Zm-4.38-.38c-.06,0-.1,0-.1.12s0,.12.1.12h4.38c.06,0,.1,0,.1-.12s0-.12-.1-.12Z"/><path class="cls-5" d="M50.37,56.05h4.19a.18.18,0,0,1,.16.19.17.17,0,0,1-.16.19H50.37a.17.17,0,0,1-.16-.19.18.18,0,0,1,.16-.19"/><path d="M54.56,56.5H50.37a.24.24,0,0,1-.23-.26.24.24,0,0,1,.23-.25h4.19a.24.24,0,0,1,.23.25A.24.24,0,0,1,54.56,56.5Zm-4.19-.38s-.09.06-.09.12,0,.13.09.13h4.19a.12.12,0,0,0,.1-.13.12.12,0,0,0-.1-.12Z"/><path class="cls-5" d="M51.74,53.19h.32v.24h.24v-.24h.33v.24h.24v-.24h.33v.54a.14.14,0,0,1-.14.14H51.89a.15.15,0,0,1-.15-.14v-.54"/><path d="M53.07,53.94H51.88a.22.22,0,0,1-.22-.21v-.6h.46v.23h.11v-.24h.47v.24h.11v-.24h.48v.61A.21.21,0,0,1,53.07,53.94Zm-1.28-.68v.47a.09.09,0,0,0,.09.08h1.19a.08.08,0,0,0,.08-.08v-.47H53v.24h-.38v-.24h-.21v.24H52v-.24Z"/><polyline class="cls-5" points="52.97 53.92 53.05 55.66 51.88 55.66 51.96 53.92 52.97 53.92"/><path d="M53.12,55.73H51.81l.09-1.87H53ZM52,55.59h1L52.91,54H52Z"/><path class="cls-5" d="M53.17,54.05h.32v.23h.24V54h.33v.24h.24V54h.33v.55a.15.15,0,0,1-.15.14H53.32a.15.15,0,0,1-.15-.15v-.53"/><path d="M54.52,55.73H53.27l0-1.07h1.17Zm-1.11-.13h1l0-.8h-.91Z"/><path d="M54.48,54.79H53.32a.21.21,0,0,1-.22-.21V54h.46v.23h.1V54h.47v.24h.1V54h.46v.61A.21.21,0,0,1,54.48,54.79Zm-1.25-.68v.47a.09.09,0,0,0,.09.08h1.16a.08.08,0,0,0,.08-.08v-.47h-.2v.24H54v-.24h-.2v.24h-.37v-.24Z"/><path class="cls-5" d="M50.3,54.05h.32v.23h.24V54h.33v.24h.24V54h.33v.55a.14.14,0,0,1-.14.14H50.45a.15.15,0,0,1-.15-.15v-.53"/><path d="M51.62,54.79H50.45a.21.21,0,0,1-.22-.21V54h.46v.24h.1V54h.47v.24h.1V54h.47v.61A.2.2,0,0,1,51.62,54.79Zm-1.25-.67v.46a.09.09,0,0,0,.08.08h1.17a.08.08,0,0,0,.08-.07v-.48h-.2v.24h-.37v-.24h-.2v.24h-.37v-.23Z"/><polyline class="cls-5" points="51.55 54.73 51.59 55.67 50.48 55.67 50.51 54.73 51.55 54.73"/><path d="M51.66,55.73H50.41l0-1.07h1.18v.07Zm-1.11-.13h1l0-.8h-.92Z"/><path class="cls-9" d="M52.35,54.47a.12.12,0,1,1,.24,0v.42h-.24v-.42"/><path class="cls-9" d="M53.79,55.07a.11.11,0,1,1,.22,0v.32h-.22v-.32"/><path class="cls-9" d="M50.91,55.07a.12.12,0,1,1,.23,0v.32h-.23v-.32"/><polyline class="cls-5" points="76.37 69.37 75.73 70.06 74.94 69.27 75.63 68.63 76.37 69.37"/><path class="cls-5" d="M71.75,69.66a1.87,1.87,0,0,1,2.08-.53,1.84,1.84,0,0,1-.51,2.12l-1.57-1.59"/><path class="cls-5" d="M72.39,67.73l-1.34,1.08.79.79a1.53,1.53,0,0,1,1.94-.39,1.65,1.65,0,0,1-.39,2l.8.79,1.08-1.36-2.88-2.86"/><path d="M74.19,72.05l-.89-.89,0,0a1.57,1.57,0,0,0,.38-1.86h0a1.46,1.46,0,0,0-1.84.4l0,0L71,68.81l1.44-1.18,3,3Zm-.7-.89.69.69,1-1.26-1.26-1.26a2.08,2.08,0,0,1,.1.52A1.82,1.82,0,0,1,73.49,71.16Zm-2.34-2.34.69.69A1.76,1.76,0,0,1,73.23,69a1.66,1.66,0,0,1,.4.1l-1.25-1.24Z"/><path class="cls-5" d="M71,68.76,74.22,72a.19.19,0,0,1,0,.27.22.22,0,0,1-.28,0l-3.23-3.24a.19.19,0,0,1,0-.27.21.21,0,0,1,.28,0"/><path d="M74,72.41a.2.2,0,0,1-.16-.07l-3.24-3.23a.29.29,0,0,1,.4-.4L74.27,72a.26.26,0,0,1,0,.37A.27.27,0,0,1,74,72.41Zm-3.16-3.63a.17.17,0,0,0-.12.06.16.16,0,0,0-.05.1.09.09,0,0,0,0,.07L74,72.25a.13.13,0,0,0,.18,0,.14.14,0,0,0,0-.1.19.19,0,0,0,0-.08l-3.24-3.23A.09.09,0,0,0,70.88,68.78Z"/><path class="cls-5" d="M72.17,69.93a1.16,1.16,0,0,1,1.25-.37,1.19,1.19,0,0,1-.37,1.26l-.88-.89"/><path d="M73.05,70.91l-1-1,.05,0a1.2,1.2,0,0,1,1.34-.38l0,0a1.25,1.25,0,0,1-.38,1.33Zm-.78-1,.78.79a1.13,1.13,0,0,0,.31-1.11A1.09,1.09,0,0,0,72.27,69.93Z"/><path class="cls-5" d="M72.77,67.11l3.11,3.1a.2.2,0,0,1,0,.26.18.18,0,0,1-.25,0l-3.1-3.1a.19.19,0,0,1,.26-.27"/><path d="M75.72,70.59a.23.23,0,0,1-.16-.06l-3.1-3.1a.23.23,0,0,1-.06-.16.27.27,0,0,1,.08-.19.21.21,0,0,1,.17-.08.25.25,0,0,1,.17.06l3.11,3.1a.23.23,0,0,1,.06.16.27.27,0,0,1-.08.19A.24.24,0,0,1,75.72,70.59Zm-3.06-3.46h0a.18.18,0,0,0-.09,0,.18.18,0,0,0,0,.1.06.06,0,0,0,0,.06l3.1,3.1a.1.1,0,0,0,.15,0,.14.14,0,0,0,0-.1.11.11,0,0,0,0-.06l-3.1-3.1A.09.09,0,0,0,72.66,67.13Z"/><path class="cls-5" d="M72.57,67.45l3,3a.19.19,0,0,1,0,.25.18.18,0,0,1-.25,0l-3-3a.17.17,0,0,1,0-.24.17.17,0,0,1,.25,0"/><path d="M75.37,70.79h0a.2.2,0,0,1-.15-.06l-3-3a.25.25,0,0,1,0-.34.32.32,0,0,1,.2-.08h0a.2.2,0,0,1,.15.06l3,3a.25.25,0,0,1,0,.35A.27.27,0,0,1,75.37,70.79Zm-2.9-3.32a.18.18,0,0,0-.1,0,.11.11,0,0,0,0,.16l3,3,.05,0a.14.14,0,0,0,.1,0,.1.1,0,0,0,0-.15l-3-3,0,0Z"/><path class="cls-5" d="M75.56,66.39l.23.23-.17.17.17.17.17-.17.24.23-.17.17.16.17.17-.17.24.24-.38.38a.15.15,0,0,1-.21,0L75.19,67a.15.15,0,0,1,0-.21l.38-.38"/><path d="M76.13,67.93a.21.21,0,0,1-.16-.07L75.13,67a.22.22,0,0,1,0-.3l.5-.5v.14l.26.26-.17.16.08.08.17-.17.33.34-.16.16.07.08.17-.17.34.34-.44.43A.2.2,0,0,1,76.13,67.93Zm-.58-1.45-.33.33a.08.08,0,0,0,0,.11l.84.85a.08.08,0,0,0,.11,0l.34-.33-.15-.15-.17.17-.27-.27L76.1,67,76,66.88l-.17.17-.27-.27.17-.16Z"/><polyline class="cls-5" points="75.92 67.78 74.74 69.06 73.92 68.24 75.21 67.06 75.92 67.78"/><path d="M74.74,69.16l-.92-.92L75.21,67l.8.81ZM74,68.24l.72.73,1.09-1.19-.62-.63Z"/><path class="cls-5" d="M76,68l.23.22L76,68.4l.17.17.17-.17.23.23-.17.17.17.17.17-.17L77,69l-.38.38a.14.14,0,0,1-.2,0l-.83-.83a.15.15,0,0,1,0-.21L76,68"/><path d="M75.73,70.16l-.88-.89.78-.73.91.9H76.4ZM75,69.28l.69.68.55-.59-.65-.64Z"/><path d="M76.53,69.53h0a.23.23,0,0,1-.15-.07l-.82-.82a.21.21,0,0,1,0-.3l.43-.43.32.32-.16.17.07.07.17-.17.33.33-.17.17.07.07.17-.17.33.33-.43.44A.2.2,0,0,1,76.53,69.53ZM76,68.1l-.33.33a.08.08,0,0,0,0,.11l.83.83,0,0h0a0,0,0,0,0,0,0l.34-.34-.14-.13-.17.17-.26-.27.17-.17-.14-.14-.17.17-.26-.26.16-.17Z"/><path class="cls-5" d="M73.94,66l.23.23-.17.17.17.16.17-.17.24.24-.17.17.16.17.17-.17L75,67l-.39.38a.13.13,0,0,1-.2,0l-.82-.82a.15.15,0,0,1,0-.21l.38-.38"/><path d="M74.5,67.5a.2.2,0,0,1-.15-.06l-.83-.82a.23.23,0,0,1,0-.31l.43-.43.33.33-.17.17.07.07.17-.17.33.33-.17.17.07.07.17-.17.33.33-.43.43A.2.2,0,0,1,74.5,67.5Zm-.56-1.42-.33.33a.08.08,0,0,0,0,.11l.82.82a.08.08,0,0,0,.11,0l.33-.34-.14-.14-.17.17-.26-.26.17-.17-.14-.14-.17.17-.26-.26.16-.17Z"/><polyline class="cls-5" points="74.35 67.35 73.71 68.04 72.92 67.25 73.61 66.61 74.35 67.35"/><path d="M73.71,68.13l-.89-.88.79-.74.83.84ZM73,67.25l.69.69.54-.59-.65-.65Z"/><path class="cls-9" d="M75.09,67.73a.12.12,0,1,1,.17.17l-.3.29L74.8,68l.29-.29"/><path class="cls-9" d="M75.68,69.17a.11.11,0,1,1,.16.16l-.23.23-.16-.16.23-.23"/><path class="cls-9" d="M73.65,67.14a.11.11,0,1,1,.16.16l-.23.22-.16-.15.23-.23"/><polyline class="cls-5" points="78.95 54.73 78.98 55.67 77.87 55.67 77.9 54.73 78.95 54.73"/><path class="cls-5" d="M75.88,58.2A1.89,1.89,0,0,1,77,56.35a1.86,1.86,0,0,1,1.14,1.87l-2.24,0"/><path class="cls-5" d="M75,56.38l-.19,1.71H75.9A1.51,1.51,0,0,1,77,56.45a1.65,1.65,0,0,1,1.11,1.65h1.12L79,56.37H75"/><path d="M76,58.17H74.71l.19-1.84h4.18l.22,1.87H78V58.1A1.57,1.57,0,0,0,77,56.52a1.46,1.46,0,0,0-1,1.58Zm2.2-.14h1L79,56.44H77.18a1.61,1.61,0,0,1,.43.3A1.79,1.79,0,0,1,78.17,58Zm-3.31,0h1a1.73,1.73,0,0,1,.6-1.37,1.79,1.79,0,0,1,.35-.22H75Z"/><path class="cls-5" d="M74.71,58.1h4.57a.2.2,0,0,1,.18.22.2.2,0,0,1-.18.21H74.71a.2.2,0,0,1-.18-.21.2.2,0,0,1,.18-.22"/><path d="M79.28,58.59H74.71a.25.25,0,0,1-.24-.27.25.25,0,0,1,.24-.28h4.57a.26.26,0,0,1,.25.28A.26.26,0,0,1,79.28,58.59Zm-4.57-.42c-.06,0-.11.07-.11.15s.05.14.11.14h4.57c.06,0,.11-.07.11-.14s0-.15-.11-.15Z"/><path class="cls-5" d="M76.37,58.09A1.17,1.17,0,0,1,77,57a1.18,1.18,0,0,1,.63,1.14H76.37"/><path d="M77.69,58.16H76.3v-.07a1.28,1.28,0,0,1,.59-1.17c.06,0,.08-.05.12,0h0a1.27,1.27,0,0,1,.67,1.2ZM76.44,58h1.11A1.16,1.16,0,0,0,77,57,1.14,1.14,0,0,0,76.44,58Z"/><path class="cls-5" d="M74.81,55.67h4.38a.19.19,0,0,1,.17.19.18.18,0,0,1-.17.19H74.81a.17.17,0,0,1-.17-.19.18.18,0,0,1,.17-.19"/><path d="M79.19,56.12H74.81a.26.26,0,0,1,0-.52h4.38a.26.26,0,0,1,0,.52Zm-4.38-.38a.12.12,0,0,0,0,.24h4.38c.06,0,.1,0,.1-.12s0-.12-.1-.12Z"/><path class="cls-5" d="M74.9,56.05h4.19a.18.18,0,0,1,.16.19.17.17,0,0,1-.16.19H74.9a.17.17,0,0,1-.16-.19.18.18,0,0,1,.16-.19"/><path d="M79.09,56.5H74.9a.24.24,0,0,1-.23-.26A.24.24,0,0,1,74.9,56h4.19a.24.24,0,0,1,.23.25A.24.24,0,0,1,79.09,56.5Zm-4.19-.38c-.05,0-.09.06-.09.12s0,.13.09.13h4.19a.12.12,0,0,0,.1-.13.12.12,0,0,0-.1-.12Z"/><path class="cls-5" d="M76.27,53.19h.32v.24h.24v-.24h.33v.24h.24v-.24h.33v.54a.14.14,0,0,1-.14.14H76.42a.15.15,0,0,1-.15-.14v-.54"/><path d="M77.6,53.94H76.41a.22.22,0,0,1-.22-.21v-.6h.46v.23h.11v-.24h.47v.24h.11v-.24h.48v.61A.21.21,0,0,1,77.6,53.94Zm-1.28-.68v.47a.09.09,0,0,0,.09.08H77.6a.08.08,0,0,0,.08-.08v-.47h-.21v.24H77.1v-.24h-.21v.24h-.37v-.24Z"/><polyline class="cls-5" points="77.5 53.92 77.58 55.66 76.41 55.66 76.49 53.92 77.5 53.92"/><path d="M77.65,55.73H76.34l.09-1.88h1.14Zm-1.17-.14h1L77.44,54h-.88Z"/><path class="cls-5" d="M77.69,54.05H78v.23h.24V54h.33v.24h.23V54h.34v.55a.15.15,0,0,1-.15.14H77.85a.16.16,0,0,1-.16-.15v-.53"/><path d="M77.8,55.74l0-1.08H79l0,1.07ZM78,54.8l0,.8h1l0-.8Z"/><path d="M79,54.79H77.85a.21.21,0,0,1-.22-.21V54h.46v.23h.1V54h.47v.24h.1V54h.46v.61A.21.21,0,0,1,79,54.79Zm-1.25-.68v.47a.09.09,0,0,0,.09.08H79a.08.08,0,0,0,.08-.08v-.47h-.2v.24h-.37v-.24h-.2v.24H78v-.24Z"/><path class="cls-5" d="M74.83,54.05h.32v.23h.24V54h.33v.24H76V54h.33v.55a.14.14,0,0,1-.14.14H75a.15.15,0,0,1-.15-.15v-.53"/><path d="M76.15,54.79H75a.21.21,0,0,1-.22-.21V54h.46v.24h.1V54h.47v.24h.1V54h.47v.61A.2.2,0,0,1,76.15,54.79Zm-1.25-.67v.46a.09.09,0,0,0,.08.08h1.17a.07.07,0,0,0,.07-.07v-.48H76v.24h-.38v-.24h-.19v.24h-.37v-.23Z"/><polyline class="cls-5" points="76.08 54.73 76.12 55.67 75 55.67 75.04 54.73 76.08 54.73"/><path d="M74.94,55.74l0-1.08h1.18l0,1.07Zm.16-.94,0,.8h1l0-.8Z"/><path class="cls-9" d="M76.88,54.47a.12.12,0,1,1,.24,0v.42h-.24v-.42"/><path class="cls-9" d="M78.32,55.07a.11.11,0,1,1,.22,0v.32h-.22v-.32"/><path class="cls-9" d="M75.44,55.07a.12.12,0,1,1,.23,0v.32h-.23v-.32"/><polyline class="cls-5" points="55.93 66.6 56.62 67.24 55.83 68.03 55.19 67.34 55.93 66.6"/><path class="cls-5" d="M56.22,71.22a1.87,1.87,0,0,1-.53-2.08,1.84,1.84,0,0,1,2.12.51l-1.59,1.57"/><path class="cls-5" d="M54.29,70.58l1.08,1.34.79-.79a1.53,1.53,0,0,1-.39-1.94,1.65,1.65,0,0,1,1.95.38l.79-.79L57.15,67.7l-2.86,2.88"/><path d="M55.36,72l-1.14-1.41v-.06l2.92-2.93,1.47,1.16-.89.89,0,0a1.57,1.57,0,0,0-1.86-.38,1.48,1.48,0,0,0,.4,1.84l0,0Zm-1-1.43,1,1.23.69-.69a1.76,1.76,0,0,1-.54-1.4,1.79,1.79,0,0,1,.1-.4ZM56.46,69a1.87,1.87,0,0,1,1.26.52l.69-.69-1.26-1-1.26,1.26a1.82,1.82,0,0,1,.49-.1Z"/><path class="cls-5" d="M55.32,72l3.23-3.24a.22.22,0,0,1,.28,0,.19.19,0,0,1,0,.27l-3.23,3.24a.22.22,0,0,1-.3-.3"/><path d="M55.51,72.39a.29.29,0,0,1-.21-.09.27.27,0,0,1,0-.37l3.24-3.23a.28.28,0,0,1,.39.39l-3.23,3.24A.25.25,0,0,1,55.51,72.39Zm3.16-3.62-.07,0L55.37,72a.14.14,0,0,0,.2.2L58.81,69a.13.13,0,0,0,0-.18A.16.16,0,0,0,58.67,68.77Z"/><path class="cls-5" d="M56.49,70.8a1.2,1.2,0,0,1-.38-1.25,1.2,1.2,0,0,1,1.26.36l-.88.89"/><path d="M56.44,70.85A1.34,1.34,0,0,1,56,69.68c0-.16.06-.18.07-.19a1.27,1.27,0,0,1,1.34.37l0,0-.93.93,0,0Zm-.28-1.24a1.13,1.13,0,0,0,.33,1.09l.79-.79A1.13,1.13,0,0,0,56.16,69.61Z"/><path class="cls-5" d="M53.67,70.19l3.1-3.1a.19.19,0,0,1,.27.27l-3.1,3.1a.19.19,0,0,1-.27-.27"/><path d="M53.82,70.57h0a.21.21,0,0,1-.17-.08.27.27,0,0,1-.08-.18.21.21,0,0,1,.06-.16L56.72,67A.28.28,0,0,1,56.9,67a.25.25,0,0,1,.17.08.25.25,0,0,1,0,.35L54,70.51A.21.21,0,0,1,53.82,70.57Zm3.06-3.46a.07.07,0,0,0-.06,0l-3.1,3.1a.09.09,0,0,0,0,.07.14.14,0,0,0,.13.13.09.09,0,0,0,.07,0l3.1-3.1a.11.11,0,0,0,0-.15.2.2,0,0,0-.09,0Z"/><path class="cls-5" d="M54,70.4l3-3a.19.19,0,0,1,.27.27l-3,3a.17.17,0,0,1-.25,0,.17.17,0,0,1,0-.24"/><path d="M54.17,70.77a.27.27,0,0,1-.19-.08.25.25,0,0,1,0-.34h0l3-3a.24.24,0,0,1,.34,0,.25.25,0,0,1,.09.19.23.23,0,0,1-.06.16l-3,3a.2.2,0,0,1-.15.06Zm-.12-.33a.12.12,0,0,0,0,.16.18.18,0,0,0,.1,0h0l0,0,3-3a.07.07,0,0,0,0-.06.11.11,0,0,0,0-.09c-.05,0-.12-.06-.15,0Z"/><path class="cls-5" d="M53,67.41l.23-.23.17.16.17-.16L53.34,67l.24-.24.17.17.17-.17-.17-.17.23-.23.39.39a.13.13,0,0,1,0,.2l-.82.82a.15.15,0,0,1-.21,0L53,67.41"/><path d="M53.42,67.9a.2.2,0,0,1-.15-.06l-.4-.39v-.06l0,0,.29-.28.16.16.08-.07L53.25,67l.33-.34.17.17.08-.07-.17-.17.33-.34.44.43a.21.21,0,0,1,0,.3l-.84.85A.25.25,0,0,1,53.42,67.9ZM53,67.42l.33.33a.08.08,0,0,0,.11,0l.85-.84a.08.08,0,0,0,0-.11L54,66.45l-.14.15.17.17-.27.27-.17-.17-.14.14.17.17-.27.27-.16-.17Z"/><polyline class="cls-5" points="54.34 67.05 55.62 68.23 54.8 69.05 53.62 67.76 54.34 67.05"/><path d="M54.8,69.15l-1.27-1.39.81-.8,1.38,1.27Zm-1.09-1.39L54.8,69l.72-.72-1.18-1.09Z"/><path class="cls-5" d="M54.56,67l.23-.23.17.17.17-.17L55,66.6l.23-.23.17.17.17-.17-.17-.17.23-.23.39.38a.14.14,0,0,1,0,.2l-.83.83a.15.15,0,0,1-.21,0L54.56,67"/><path d="M55.83,68.12l-.73-.78.83-.84.79.73Zm-.55-.78.55.59.69-.69-.59-.55Z"/><path d="M55,67.48a.21.21,0,0,1-.15,0l-.4-.4V67l0,0,.28-.27.17.16.07-.07-.17-.17.33-.33.17.17.07-.07-.17-.17.33-.33.43.43a.17.17,0,0,1,.06.15.22.22,0,0,1-.06.15l-.82.82A.25.25,0,0,1,55,67.48ZM54.66,67l.33.33a.07.07,0,0,0,.11,0l.82-.82a.09.09,0,0,0,0-.06l0,0-.34-.34-.14.14.17.17-.26.26-.17-.17-.14.14.17.17L55,67l-.17-.16Z"/><path class="cls-5" d="M52.54,69l.23-.23.16.16.17-.16-.17-.17.24-.24.17.17.17-.17-.17-.17.23-.23.38.38a.14.14,0,0,1,0,.21l-.82.82a.15.15,0,0,1-.21,0L52.54,69"/><path d="M53,69.51a.2.2,0,0,1-.15-.06L52.44,69l.33-.33.16.17L53,68.8l-.17-.17.33-.33.17.17.07-.08-.17-.17.33-.33.43.44a.18.18,0,0,1,.06.14.22.22,0,0,1-.06.15l-.83.83A.22.22,0,0,1,53,69.51ZM52.63,69l.34.33s.08,0,.11,0l.82-.82a.09.09,0,0,0,0-.06s0,0,0,0l-.34-.34-.14.14.17.18-.26.26-.17-.17-.14.14.17.17-.27.26-.16-.17Z"/><polyline class="cls-5" points="53.91 68.62 54.59 69.26 53.81 70.05 53.16 69.36 53.91 68.62"/><path d="M53.81,70.15l-.74-.79.83-.83.79.73Zm-.55-.79.55.59.69-.69-.59-.54Z"/><path class="cls-9" d="M54.29,67.88a.12.12,0,1,1,.16-.17l.3.3-.17.16-.29-.29"/><path class="cls-9" d="M55.73,67.29a.11.11,0,1,1,.16-.16l.22.23-.15.16-.23-.23"/><path class="cls-9" d="M53.7,69.32a.11.11,0,1,1,.15-.16l.23.23-.16.16-.22-.23"/><path class="cls-10" d="M66,65.61a.41.41,0,0,0-.4.41.4.4,0,0,0,.4.4.39.39,0,0,0,.4-.4.41.41,0,0,0-.4-.41"/><path class="cls-10" d="M63.74,65.62a.4.4,0,1,0,.4.4.4.4,0,0,0-.4-.4"/><path class="cls-10" d="M64.84,64.49a.4.4,0,1,0,.4.4.4.4,0,0,0-.4-.4"/><path class="cls-10" d="M66,63.41a.4.4,0,1,0,0,.8.4.4,0,1,0,0-.8"/><path class="cls-10" d="M71.59,58.66a.41.41,0,1,0,0,.81.41.41,0,0,0,0-.81"/><path class="cls-10" d="M69.39,58.67a.4.4,0,1,0,.41.4.4.4,0,0,0-.41-.4"/><path class="cls-10" d="M70.46,57.54a.4.4,0,1,0,.4.4.4.4,0,0,0-.4-.4"/><path class="cls-10" d="M71.59,56.46a.4.4,0,1,0,.4.4.4.4,0,0,0-.4-.4"/><path class="cls-10" d="M69.39,56.46a.4.4,0,1,0,.4.4.4.4,0,0,0-.4-.4"/><path class="cls-10" d="M66,58.65a.4.4,0,0,0-.4.4.4.4,0,1,0,.8,0,.4.4,0,0,0-.4-.4"/><path class="cls-10" d="M63.74,58.66a.4.4,0,1,0,.4.4.4.4,0,0,0-.4-.4"/><path class="cls-10" d="M64.86,57.53a.4.4,0,1,0,.4.4.4.4,0,0,0-.4-.4"/><path class="cls-10" d="M66,56.45a.4.4,0,1,0,.4.4.4.4,0,0,0-.4-.4"/><path class="cls-10" d="M63.74,56.45a.4.4,0,1,0,.4.4.4.4,0,0,0-.4-.4"/><path class="cls-10" d="M60.37,58.67a.4.4,0,1,0,.4.4.4.4,0,0,0-.4-.4"/><path class="cls-10" d="M58.18,58.67a.4.4,0,1,0,.4.4.4.4,0,0,0-.4-.4"/><path class="cls-10" d="M59.25,57.54a.4.4,0,1,0,.4.4.4.4,0,0,0-.4-.4"/><path class="cls-10" d="M60.37,56.46a.41.41,0,1,0,.4.4.4.4,0,0,0-.4-.4"/><path class="cls-10" d="M63.74,63.41a.4.4,0,1,0,.4.4.4.4,0,0,0-.4-.4"/><path class="cls-11" d="M58.17,56.46a.4.4,0,1,0,.4.4.4.4,0,0,0-.4-.4"/><path class="cls-10" d="M63.74,49.42a.41.41,0,1,0,.4.4.4.4,0,0,0-.4-.4"/><path class="cls-10" d="M65.94,49.42a.41.41,0,1,0,.4.4.4.4,0,0,0-.4-.4"/><path class="cls-10" d="M64.81,50.5a.4.4,0,0,0-.4.4.41.41,0,0,0,.4.41.41.41,0,0,0,0-.81"/><path class="cls-10" d="M65.94,51.63a.4.4,0,1,0,.4.4.4.4,0,0,0-.4-.4"/><path class="cls-10" d="M63.74,51.63a.4.4,0,1,0,.4.4.4.4,0,0,0-.4-.4"/><path class="cls-10" d="M58.17,56.46a.4.4,0,1,0,.4.4.4.4,0,0,0-.4-.4"/></g></svg>