<svg id="flags" xmlns="http://www.w3.org/2000/svg" xmlns:xlink="http://www.w3.org/1999/xlink" viewBox="0 0 162 116"><defs><style>.cls-1{fill:none;}.cls-2{clip-path:url(#clip-path);}.cls-3{fill:#002395;}.cls-4{fill:#de3831;}.cls-5{fill:#fff;}.cls-6{clip-path:url(#clip-path-2);}.cls-7{fill:#ffb612;}.cls-8{fill:#007a4d;}</style><clipPath id="clip-path"><rect class="cls-1" y="4" width="162" height="108"/></clipPath><clipPath id="clip-path-2"><polyline class="cls-1" points="0 4 81 58 0 112"/></clipPath></defs><title>zaf</title><g id="sudafrica"><g class="cls-2"><path class="cls-3" d="M0,4V112H162V4Z"/><path class="cls-4" d="M0,4V58H162V4Z"/><path id="W" d="M0,4,81,58,0,112M78.84,58H162"/><polygon class="cls-5" points="9.98 126.98 -9.98 97.02 48.55 58 -9.98 18.98 9.98 -10.98 86.45 40 162 40 162 76 86.45 76 9.98 126.98"/><g class="cls-6"><path id="X" d="M0,4,81,58,0,112"/><polygon class="cls-7" points="8.99 125.48 -8.99 98.52 51.8 58 -8.99 17.48 8.99 -9.48 110.2 58 8.99 125.48"/></g><polygon class="cls-8" points="5.99 120.99 -5.99 103.01 61.53 58 -5.99 12.99 5.99 -4.99 84.27 47.2 162 47.2 162 68.8 84.27 68.8 5.99 120.99"/></g></g></svg>